<mxfile host="app.diagrams.net" agent="Mozilla/5.0 (Windows NT 10.0; Win64; x64) AppleWebKit/537.36 (KHTML, like Gecko) Chrome/130.0.0.0 Safari/537.36" version="24.8.3">
  <diagram name="Sivu-1" id="Wvq69gFeC8dm-71Ghc-d">
    <mxGraphModel dx="1434" dy="780" grid="1" gridSize="10" guides="1" tooltips="1" connect="1" arrows="1" fold="1" page="1" pageScale="1" pageWidth="827" pageHeight="1169" math="0" shadow="0">
      <root>
        <mxCell id="0" />
        <mxCell id="1" parent="0" />
        <mxCell id="lvohqiAp40-y-OhIrPXH-5" value="" style="edgeStyle=orthogonalEdgeStyle;rounded=0;orthogonalLoop=1;jettySize=auto;html=1;entryX=0.75;entryY=1;entryDx=0;entryDy=0;" edge="1" parent="1" source="lvohqiAp40-y-OhIrPXH-1" target="lvohqiAp40-y-OhIrPXH-3">
          <mxGeometry relative="1" as="geometry">
            <mxPoint x="510" y="170" as="targetPoint" />
          </mxGeometry>
        </mxCell>
        <mxCell id="lvohqiAp40-y-OhIrPXH-1" value="PLC" style="rounded=1;whiteSpace=wrap;html=1;" vertex="1" parent="1">
          <mxGeometry x="450" y="250" width="120" height="60" as="geometry" />
        </mxCell>
        <mxCell id="lvohqiAp40-y-OhIrPXH-7" style="edgeStyle=orthogonalEdgeStyle;rounded=0;orthogonalLoop=1;jettySize=auto;html=1;exitX=0.5;exitY=0;exitDx=0;exitDy=0;entryX=0.25;entryY=1;entryDx=0;entryDy=0;" edge="1" parent="1" source="lvohqiAp40-y-OhIrPXH-2" target="lvohqiAp40-y-OhIrPXH-3">
          <mxGeometry relative="1" as="geometry" />
        </mxCell>
        <mxCell id="lvohqiAp40-y-OhIrPXH-11" style="edgeStyle=orthogonalEdgeStyle;rounded=0;orthogonalLoop=1;jettySize=auto;html=1;exitX=0.25;exitY=1;exitDx=0;exitDy=0;entryX=0;entryY=0.5;entryDx=0;entryDy=0;" edge="1" parent="1" source="lvohqiAp40-y-OhIrPXH-2" target="lvohqiAp40-y-OhIrPXH-9">
          <mxGeometry relative="1" as="geometry" />
        </mxCell>
        <mxCell id="lvohqiAp40-y-OhIrPXH-2" value="MQTT" style="rounded=1;whiteSpace=wrap;html=1;" vertex="1" parent="1">
          <mxGeometry x="210" y="250" width="120" height="60" as="geometry" />
        </mxCell>
        <mxCell id="lvohqiAp40-y-OhIrPXH-6" style="edgeStyle=orthogonalEdgeStyle;rounded=0;orthogonalLoop=1;jettySize=auto;html=1;exitX=1;exitY=0.5;exitDx=0;exitDy=0;entryX=0.75;entryY=0;entryDx=0;entryDy=0;" edge="1" parent="1" source="lvohqiAp40-y-OhIrPXH-3" target="lvohqiAp40-y-OhIrPXH-1">
          <mxGeometry relative="1" as="geometry" />
        </mxCell>
        <mxCell id="lvohqiAp40-y-OhIrPXH-8" style="edgeStyle=orthogonalEdgeStyle;rounded=0;orthogonalLoop=1;jettySize=auto;html=1;exitX=0;exitY=0.5;exitDx=0;exitDy=0;entryX=0.25;entryY=0;entryDx=0;entryDy=0;" edge="1" parent="1" source="lvohqiAp40-y-OhIrPXH-3" target="lvohqiAp40-y-OhIrPXH-2">
          <mxGeometry relative="1" as="geometry" />
        </mxCell>
        <mxCell id="lvohqiAp40-y-OhIrPXH-3" value="PC" style="rounded=1;whiteSpace=wrap;html=1;" vertex="1" parent="1">
          <mxGeometry x="340" y="120" width="120" height="60" as="geometry" />
        </mxCell>
        <mxCell id="lvohqiAp40-y-OhIrPXH-10" style="edgeStyle=orthogonalEdgeStyle;rounded=0;orthogonalLoop=1;jettySize=auto;html=1;exitX=0.5;exitY=0;exitDx=0;exitDy=0;entryX=0.5;entryY=1;entryDx=0;entryDy=0;" edge="1" parent="1" source="lvohqiAp40-y-OhIrPXH-9" target="lvohqiAp40-y-OhIrPXH-2">
          <mxGeometry relative="1" as="geometry">
            <mxPoint x="250" y="330" as="targetPoint" />
            <Array as="points">
              <mxPoint x="400" y="335" />
              <mxPoint x="270" y="335" />
            </Array>
          </mxGeometry>
        </mxCell>
        <mxCell id="lvohqiAp40-y-OhIrPXH-9" value="Twincat IoT" style="rounded=1;whiteSpace=wrap;html=1;dashed=1;" vertex="1" parent="1">
          <mxGeometry x="340" y="360" width="120" height="60" as="geometry" />
        </mxCell>
      </root>
    </mxGraphModel>
  </diagram>
</mxfile>
